<?xml version="1.0" encoding="UTF-8"?>
<svg id="Calque_1" data-name="Calque 1" xmlns="http://www.w3.org/2000/svg" viewBox="0 0 512 512">
  <defs>
    <style>
      .cls-1 { fill: #900301; }
      .cls-2 { fill: #fff; }
      .cls-3 { stroke: #d99635; stroke-miterlimit: 10; stroke-width: 4px; }
      .cls-4 { fill: #251b14; }
    </style>
  </defs>
  <ellipse class="cls-3" cx="256" cy="278.26" rx="207.41" ry="224.94"/>
  <path class="cls-1" d="M255.87,2.03C115.31,2.03,1.37,115.97,1.37,256.53s113.94,254.5,254.5,254.5,254.5-113.94,254.5-254.5S396.43,2.03,255.87,2.03Z"/>
  <path class="cls-4" d="M291.83,101.79c0,19.83-16.13,35.96-35.96,35.96s-35.96-16.13-35.96-35.96,16.13-35.96,35.96-35.96,35.96,16.13,35.96,35.96Z"/>
  <rect class="cls-2" x="223.5" y="170.33" width="64.97" height="107.94"/>
  <g>
    <path class="cls-4" d="M252.18,369.01c2.42.02,4.86.02,7.29,0l-3.65-32.37-3.65,32.37Z"/>
    <path class="cls-4" d="M326.36,161.13s.02-.02.03-.03l56.05-61.61c2.87-3.16,4.24-7.24,3.86-11.49-.38-4.25-2.46-8.02-5.85-10.61-5.97-4.56-14.22-4.08-19.62,1.14l-68.29,66.1c-9.88,9.57-22.9,14.84-36.66,14.84s-26.78-5.27-36.66-14.84l-68.29-66.1c-5.4-5.23-13.65-5.71-19.62-1.14-3.39,2.59-5.47,6.36-5.85,10.61-.38,4.25.99,8.33,3.86,11.49l56.05,61.62.03.03,1.59,1.76c12.24,13.45,18.98,30.88,18.98,49.07v213.78c0,8.84,7.19,16.15,16.03,16.29.09,0,.18,0,.27,0,8.32,0,15.25-6.18,16.19-14.47l6.24-55.39s0-.01,0-.02l7.61-67.56c.2-1.79,1.72-3.15,3.52-3.15s3.32,1.36,3.52,3.15l7.61,67.51s0,.02,0,.03l6.24,55.42c.94,8.39,8.02,14.61,16.46,14.47,8.84-.14,16.03-7.45,16.03-16.29v-213.68c0-18.19,6.74-35.62,18.98-49.07l1.69-1.85ZM255.31,268.26c-4.27,0-7.73-3.46-7.73-7.73s3.46-7.73,7.73-7.73,7.73,3.46,7.73,7.73-3.46,7.73-7.73,7.73ZM278.6,217.42c-1.1,2.39-2.49,4.44-4.18,6.14-1.69,1.7-3.51,3.39-5.47,5.05-1.57,1.3-3.06,2.59-4.47,3.86-1.41,1.27-2.51,2.79-3.3,4.56-.79,1.78-1.18,4.11-1.18,7.01v4.56h-10.95v-6.84c0-3.55.51-6.39,1.53-8.53,1.02-2.14,2.33-3.93,3.94-5.38,1.61-1.45,3.31-2.86,5.12-4.24,2.43-1.88,4.53-3.86,6.3-5.92,1.77-2.06,2.65-4.76,2.65-8.09,0-2.39-.61-4.47-1.82-6.25-1.22-1.77-2.82-3.17-4.83-4.18-2-1.01-4.1-1.52-6.3-1.52-2.59,0-4.87.51-6.83,1.52-1.96,1.01-3.63,2.37-5,4.07-1.37,1.7-2.45,3.57-3.24,5.59l-9.18-3.91c.63-1.52,1.59-3.24,2.88-5.16,1.29-1.92,2.96-3.76,5-5.54,2.04-1.77,4.51-3.24,7.41-4.4,2.9-1.16,6.24-1.74,10-1.74,4.47,0,8.47.8,12,2.39,3.53,1.59,6.34,3.93,8.41,7.01,2.08,3.08,3.12,6.83,3.12,11.24,0,3.4-.55,6.3-1.65,8.69Z"/>
    <path class="cls-4" d="M118.57,352.63c26.66,6.36,53.64,10.92,80.31,13.57v-154.25c0-15.24-5.25-29.88-14.83-41.62l-65.48,182.3Z"/>
    <path class="cls-4" d="M327.7,170.31c-9.65,11.75-14.92,26.45-14.92,41.74v154.15c26.7-2.64,53.7-7.2,80.4-13.57l-65.48-182.31Z"/>
  </g>
</svg>
